PathFileType	4	(X/Y/Z)	Formatted/subject01/trials/walk2/markers.trc
DataRate	CameraRate	NumFrames	NumMarkers	Units	OrigDataRate	OrigDataStartFrame	OrigNumFrames
200.00000000000426	200.00000000000426	4	64	m	200.00000000000426	195	223
Frame#	Time	CLAV			C7			RACR			RASH			RPSH			RLEL			RMEL			RUA1			RUA2			RUA3			RFAsuperior			RFAradius			RFAulna			RASI			RPSI			RCAL			RTOE			RMT5			RTH1			RTH2			RTH3			RTB1			RTB2			RTB3			RLFC			RMFC			RLMAL			RMMAL			RHJC			RKJC			REJC			RAJC			RSJC			LACR			LASH			LPSH			LLEL			LMEL			LUA1			LUA2			LUA3			LFAsuperior			LFAradius			LFAulna			LASI			LPSI			LCAL			LTOE			LMT5			LTH1			LTH2			LTH3			LTB1			LTB2			LTB3			LLFC			LMFC			LLMAL			LMMAL			LHJC			LKJC			LEJC			LAJC			LSJC			
		X1	Y1	Z1	X2	Y2	Z2	X3	Y3	Z3	X4	Y4	Z4	X5	Y5	Z5	X6	Y6	Z6	X7	Y7	Z7	X8	Y8	Z8	X9	Y9	Z9	X10	Y10	Z10	X11	Y11	Z11	X12	Y12	Z12	X13	Y13	Z13	X14	Y14	Z14	X15	Y15	Z15	X16	Y16	Z16	X17	Y17	Z17	X18	Y18	Z18	X19	Y19	Z19	X20	Y20	Z20	X21	Y21	Z21	X22	Y22	Z22	X23	Y23	Z23	X24	Y24	Z24	X25	Y25	Z25	X26	Y26	Z26	X27	Y27	Z27	X28	Y28	Z28	X29	Y29	Z29	X30	Y30	Z30	X31	Y31	Z31	X32	Y32	Z32	X33	Y33	Z33	X34	Y34	Z34	X35	Y35	Z35	X36	Y36	Z36	X37	Y37	Z37	X38	Y38	Z38	X39	Y39	Z39	X40	Y40	Z40	X41	Y41	Z41	X42	Y42	Z42	X43	Y43	Z43	X44	Y44	Z44	X45	Y45	Z45	X46	Y46	Z46	X47	Y47	Z47	X48	Y48	Z48	X49	Y49	Z49	X50	Y50	Z50	X51	Y51	Z51	X52	Y52	Z52	X53	Y53	Z53	X54	Y54	Z54	X55	Y55	Z55	X56	Y56	Z56	X57	Y57	Z57	X58	Y58	Z58	X59	Y59	Z59	X60	Y60	Z60	X61	Y61	Z61	X62	Y62	Z62	X63	Y63	Z63	X64	Y64	Z64	

196	4.355	2.216556173369131	1.468183064887354	-0.4976029551846826	2.098776026632198	1.541412617437671	-0.5291068961267705	2.16599837518587	1.492039900110101	-0.3640079585748408	2.220501051430486	1.450694161800946	-0.3387677345464049	2.123216728407293	1.472334001307587	-0.3323229934277878	2.012748898431818	1.168581841842571	-0.2746580357765031	2.023764819673691	1.153910465114688	-0.354072797048577	2.060736700722699	1.388432869189834	-0.303534164519338	2.105119071032922	1.319518013384866	-0.2988050588050468	2.048692113185641	1.225416598837636	-0.2783175313071083	2.055259164485308	1.066794743350525	-0.2803444448225904	2.068160687952979	0.8943837552323806	-0.2797609808188111	1.999758589724189	0.9006361686131614	-0.2765815873658302	2.186718939225575	1.038871242597385	-0.4142364293774928	2.01852847058112	1.078359415178752	-0.4855571259945831	2.105680532304126	0.128690093223609	-0.4486224128309491	2.340778925797451	0.070664003732896	-0.4557363703295244	2.283636711112349	0.05054326490377342	-0.3655198122099173	2.111151162587067	0.9236865007340535	-0.3650423069973951	2.128944637164552	0.769859157347403	-0.3767182779656942	2.231471978971343	0.6508290264976289	-0.3663486989031691	2.312015767230704	0.4087097255349449	-0.4200836248111101	2.221576778782208	0.3783081949687181	-0.3609416325637519	2.249504539727518	0.230933218104987	-0.438397208704769	2.297782662606833	0.5818606198373536	-0.3568277812729934	2.320540009216683	0.5787559104236053	-0.4682535987180332	2.179188768366375	0.1235990160433543	-0.3817037880529942	2.198505105273334	0.124455495933112	-0.4845780262973004	2.105715290599816	0.931526027240395	-0.4638781752662575	2.31638306862685	0.576724004182539	-0.4139819697241876	2.018925862429032	1.149827390825148	-0.3188608867264516	2.173478201080385	0.1148624270086845	-0.4430876872829362	2.174928210310271	1.460831344617832	-0.3357486955693887	2.143686052908218	1.509823331510326	-0.6935313341761598	2.197870392083328	1.464683164248644	-0.7273524885171463	2.092803323218281	1.488054190915817	-0.7203921681090398	2.091896512304134	1.144552832794098	-0.8002630271301577	2.085992285127247	1.134171134750544	-0.7139130445853976	2.075003505576449	1.38097521590697	-0.7553720158347633	2.130912318836248	1.307521848424163	-0.7665224344170052	2.097624592381957	1.215755272788458	-0.7859508263724124	2.163665383892341	1.094907738984881	-0.7841446038104245	2.29470713184598	0.9700885679148075	-0.7485289941773284	2.243878576703426	0.9227087662712363	-0.7662743720818549	2.186479219582157	1.046138760083376	-0.6643081273729772	2.019011008290477	1.086145166514758	-0.598130205373786	1.890177738816614	0.06037963332354366	-0.5670787184172695	2.12640076462756	0.04413662400053545	-0.5514083379792486	2.082261979759827	0.006228971806189421	-0.6480284154763652	2.142424624042708	0.8901424847935282	-0.7121188587191533	2.042108353424867	0.7560226395442505	-0.6688527962220229	2.072814510775168	0.6175568092094932	-0.6518132100787281	2.098845270317814	0.3887670141161279	-0.5804810379045394	2.004570029000154	0.2963667200035219	-0.6400470668637651	2.038200175574729	0.180528780036298	-0.5799107289098646	2.073424131569757	0.52666493167338	-0.6599515505169722	2.078420180862604	0.5319333842992983	-0.5464150729560054	1.966889590712306	0.06814183275912333	-0.6335396965941706	1.98047835231864	0.0714482209586807	-0.5298026411186512	2.10696653551796	0.936736296049403	-0.6234557612489948	2.07704733731906	0.5285931307250142	-0.6013483161306904	2.092223027153639	1.132773004906031	-0.7515374422129832	1.958320572228498	0.05992265362393795	-0.5724173711481597	2.152297550963114	1.47482034706553	-0.7243334495401301	
197	4.36	2.222608578206263	1.467533502655743	-0.497186560168225	2.104939176349679	1.54089386082224	-0.528799822312028	2.171926258738111	1.49140222245304	-0.3636408774535275	2.22635810073977	1.449992750033717	-0.3383523252328098	2.129088986357139	1.471730885689206	-0.332009637042284	2.016565483077166	1.16893598547358	-0.2749430210126256	2.027614293337894	1.154295472559487	-0.3543589092040562	2.066067186948766	1.388499371620812	-0.3034497742984483	2.109980736771935	1.319283591134771	-0.2987388869652019	2.052893226796262	1.225534244951968	-0.2784683943776608	2.058189734339416	1.066792445239862	-0.2806568210034275	2.069542823797629	0.8942720038258587	-0.280278382135748	2.001191588063521	0.9011335870017937	-0.2772658237787652	2.192536637542076	1.038166432598963	-0.4142767034816355	2.024291572894385	1.077929386592771	-0.4853154041593977	2.125264270355912	0.1213737992858356	-0.4491784287649602	2.362076858418445	0.07063186823377089	-0.4550046320098592	2.30515837018487	0.04904861494720001	-0.3649848949303238	2.116450503737403	0.9226079559019615	-0.365028970558046	2.134135320946827	0.7688261103455564	-0.3774458472394767	2.236523643884318	0.6496485775704115	-0.3674007964336253	2.32237989328828	0.4078811000940964	-0.420689495577433	2.232669018775709	0.3748079612535905	-0.3618731252306553	2.265679979751471	0.2281312404169343	-0.4386515462381423	2.302743871917662	0.5805702628394509	-0.3580485995192009	2.325811523078753	0.5780170562348603	-0.4694245998267377	2.198555394600417	0.1188009451451189	-0.3819042186922953	2.218342152132222	0.11991375869529	-0.4846865576228289	2.111299725175046	0.9309604494139393	-0.4638380848587989	2.321339008342195	0.575969482362317	-0.4151837121874398	2.022690081907608	1.150198655327426	-0.3191604168818007	2.193430443944034	0.1096703078058784	-0.4432824558281818	2.180792384107226	1.460175979681531	-0.335381092949958	2.150000185257687	1.50930779137668	-0.6931835653237456	2.204175722235963	1.46412199218283	-0.7269578534367662	2.099125078702722	1.487599178690757	-0.7201077501909985	2.09847383488444	1.144061284427776	-0.800228341930816	2.092501200861292	1.13360802867342	-0.7138916977681907	2.08139943889611	1.380438020601597	-0.7551659029639798	2.137362160905067	1.307027149744977	-0.7663257512901598	2.104146595279095	1.215255868173112	-0.7858551555098622	2.170838990329592	1.095402675745066	-0.7838861149244382	2.303623396416983	0.9725766070191788	-0.7477987880039676	2.253550696731348	0.9244304954021404	-0.7656302977827294	2.191914231081166	1.045544632952895	-0.6643445006567136	2.024608372462266	1.08576410379128	-0.5978856747101809	1.890293483378132	0.06066572335971251	-0.5671681059918086	2.126502368804381	0.04401086406585896	-0.5517184391407087	2.082215018307074	0.006258232026571456	-0.6483312289776201	2.147437906472948	0.8892883015056163	-0.7120202602431389	2.045798871272597	0.75613649250705	-0.6688515043157464	2.075169221346976	0.617390370026018	-0.6517372471470302	2.099859916460705	0.3885576384516266	-0.5805024600671136	2.005290727621083	0.2964584741566169	-0.6400688914017754	2.038639020690672	0.1804877098615407	-0.5800316744847337	2.074928037463034	0.5264946633093561	-0.6598520456937871	2.079825998792157	0.5317453408599973	-0.5463104709352978	1.966982914594241	0.06833444527069998	-0.6336892863147565	1.980647926219941	0.07153383369385879	-0.5299588920484751	2.112307592961051	0.936239315557794	-0.6234151390920012	2.078435610039906	0.5284574724752411	-0.6012623156557361	2.098765318235886	1.132243284482431	-0.7515117790667566	1.958430746217758	0.06009813757273541	-0.5725669065923918	2.158610005603419	1.474305221830643	-0.7239866211539144	
198	4.365	2.228677788067937	1.466831970146645	-0.4967504357641029	2.111119226783222	1.540320653755945	-0.5284778163212175	2.177869350754754	1.490718977901267	-0.363255955647915	2.232230246504234	1.449247467948042	-0.3379165085609365	2.134976332532625	1.471083540465859	-0.3316779989440994	2.020435071773789	1.169237151271114	-0.2752408700836668	2.031525098139287	1.154633244506077	-0.354657753340376	2.071424045299155	1.388510073315647	-0.3033592705077742	2.11487477545876	1.319001471019589	-0.2986683386945854	2.057139041385942	1.225600779534923	-0.2786255740168673	2.061215581138199	1.066759395735414	-0.2810084442564616	2.07108457744792	0.8941473576764205	-0.2808478489120748	2.002788526458882	0.901592199947744	-0.277971740295927	2.198363396063675	1.037383210074833	-0.4142877081895868	2.030069973403508	1.077451333174247	-0.4850398154601173	2.144923169897771	0.114339653332326	-0.4495887664500348	2.383213154728226	0.07091934978014838	-0.4542202289573412	2.326595482291803	0.04790541481889559	-0.3643653339622568	2.121815801119946	0.9214666746452493	-0.3649986307692253	2.139298156243651	0.7677242284338774	-0.3781673475350587	2.241489700433731	0.6483445178443603	-0.3685273769113959	2.33258256423332	0.4070565951979081	-0.4213626334502815	2.243710351291778	0.3713385848583813	-0.3628204055835395	2.281773829964314	0.2255091822836635	-0.4388708286486799	2.30758874227074	0.5791207156253596	-0.3593962417925935	2.330876785426546	0.5771032081626927	-0.4707373642414505	2.21793692352237	0.1142926263801443	-0.3819954416310875	2.238152502809483	0.1156512015940716	-0.4846913419929105	2.116876327899227	0.9303324148623623	-0.4637738097934609	2.326113398865989	0.575044216018318	-0.4165241940010095	2.026513237865207	1.150520618519358	-0.3194734785078686	2.213391864021879	0.1047690041340598	-0.4433596388865807	2.186671650504234	1.459476576119013	-0.3349940787309292	2.156333239881778	1.508729804348499	-0.6928186223512763	2.210500571242204	1.46349707714333	-0.7265432186585038	2.105466344152865	1.487080035462573	-0.7198056282723198	2.105082680713575	1.143502390859428	-0.8001670339452536	2.099033646312643	1.132980876362855	-0.7138440013651887	2.087819270589196	1.379834788809561	-0.7549443387777597	2.143837940621339	1.306466774633231	-0.7661053213910524	2.11069773623424	1.214689683792477	-0.7857351965908973	2.178017039853824	1.0958219540048	-0.7835892109777253	2.31247066654237	0.9749709608737698	-0.747017411015964	2.263154295960085	0.9260864983199441	-0.7649475803417809	2.197356705545515	1.044887907535934	-0.6643504893156058	2.030221017623512	1.08534203130983	-0.5976065202888546	1.890404522798704	0.06094427401110938	-0.5672572765115014	2.126598871751034	0.04388166286802563	-0.5520319383483003	2.082162793221662	0.00628649171280875	-0.6486378379133773	2.152440700437406	0.8883919764175136	-0.7119003115966159	2.049504233158865	0.7562077987917848	-0.6688321552163929	2.077551802013708	0.6171964267135794	-0.6516515242699578	2.100901475222544	0.388325484537014	-0.5805198583770059	2.006030711468589	0.2965384452836444	-0.6400885153487036	2.039084391807117	0.1804316961374702	-0.5801512877203836	2.076469320930332	0.5263051651784034	-0.6597474760910917	2.081272814348545	0.5315349868147112	-0.5462009030243824	1.967072849763851	0.06852091686226125	-0.6338393394745117	1.980812873408189	0.07161051068963353	-0.5301155259894406	2.117639881607222	0.9356897512184437	-0.6233496049376119	2.07986531044037	0.5283002756143924	-0.6011710981366206	2.1053347026255	1.131648133443257	-0.7514590607929322	1.958535924475946	0.06026757155985962	-0.5727171270692962	2.164941975242203	1.473726185314302	-0.7236207888284965	
199	4.37	2.234763791392115	1.466079944921546	-0.4962938617080153	2.117316011839109	1.53969425445371	-0.5281400724268267	2.183827594504454	1.489991349926386	-0.3628524467706568	2.238117519620802	1.448459585580208	-0.3374595878470336	2.140878753328838	1.470393007963259	-0.3313273647082771	2.024361485124421	1.169483516905949	-0.2755514464806618	2.03550180086096	1.154921903766027	-0.3549690573226694	2.076807959760479	1.388464333414015	-0.3032625183696911	2.119803012753822	1.318671518277605	-0.2985929403089922	2.061432595182234	1.225615045596736	-0.2787888038880254	2.064340463068751	1.066692788731525	-0.2813968876088919	2.072789883772863	0.8940053803614396	-0.2814664727626869	2.004552360895957	0.9020074746010318	-0.2786996664235417	2.204203661758507	1.036523922756982	-0.414271829015207	2.03586614249028	1.076925129767811	-0.4847290029671307	2.164614448254043	0.1076239178824688	-0.4498541906379654	2.40414422546091	0.07154327394560227	-0.4533986285832697	2.347905084052635	0.04713515881410792	-0.3636740105652231	2.127257927869241	0.9202698256197712	-0.364951728734745	2.144446025323093	0.766560734205586	-0.3788755260447167	2.246385903135208	0.6469279350811339	-0.369720706367934	2.342618025822723	0.4062475430540803	-0.422103534858892	2.254693619989675	0.367922163583877	-0.3637794138906921	2.297757931177034	0.2230875251654805	-0.4390595741489647	2.312334905452622	0.5775257175246609	-0.3608631081852715	2.335747395032472	0.5760224302946357	-0.4721862607535375	2.2372943447259	0.1101034260385136	-0.3819821649798983	2.257893169532037	0.1116957803541588	-0.4845985191735184	2.122450369991113	0.9296432627328715	-0.4636865341505685	2.330721181406851	0.5739577091735372	-0.4179966359211754	2.030399731156373	1.150791402572667	-0.3197998452754236	2.233319941589345	0.1001892236106092	-0.4433241111610139	2.192566019551331	1.458734297295548	-0.3345869479176831	2.162685111149578	1.508090951229218	-0.6924357367835813	2.216844927036365	1.462810165598113	-0.7261078704990436	2.111827059441044	1.486498261771808	-0.7194850695091866	2.11172367563873	1.142877777797303	-0.8000787947956346	2.105591140220776	1.132290993879755	-0.7137696350619487	2.094263078746236	1.379166940123435	-0.7547061253616328	2.150339919629403	1.305842405942879	-0.7658607223068794	2.117278480902696	1.214058325167975	-0.785590479933325	2.185199829999933	1.096164572538044	-0.7832552137256034	2.321248304818885	0.9772648740492178	-0.7461889079802848	2.272686240518245	0.9276708859232645	-0.7642290939898996	2.202805844704414	1.044172322765463	-0.6643283756182801	2.035848977807881	1.08487945670433	-0.5972913295057378	1.890511812333931	0.06121865154261617	-0.5673436378080071	2.126691269150472	0.04374929600904939	-0.5523503095149203	2.082104154413433	0.006314638841996506	-0.6489489505107838	2.157433326218918	0.887456344121385	-0.7117612029007343	2.053227094002403	0.7562376102396938	-0.6687944221266128	2.079967094310065	0.6169758555924703	-0.6515567354612635	2.101975560612271	0.3880705477591387	-0.5805343595473361	2.006793276802671	0.2966081517081612	-0.6401054115858328	2.039538784867741	0.1803618723983443	-0.5802695654301394	2.078053693001757	0.5260970428438121	-0.6596386853169268	2.082769204467684	0.5313025813951486	-0.5460873085812603	1.967159344817937	0.06870357454616777	-0.6339885824112703	1.98097491652824	0.07168038770518359	-0.5302715062599213	2.122965314921521	0.9350898532326962	-0.6232603037577037	2.081343865824187	0.5281217226443685	-0.6010754805719	2.111932333868901	1.130989017533391	-0.7513790265860177	1.95863696180232	0.06043343349479707	-0.5728666108618694	2.171293426966895	1.473084877313453	-0.7232352305696932	
